<svg width="20" height="20" viewBox="0 0 20 20" fill="none" xmlns="http://www.w3.org/2000/svg">
<path d="M14.1198 18.1309C14.201 18.2122 14.2655 18.3087 14.3095 18.415C14.3535 18.5212 14.3762 18.635 14.3762 18.75C14.3762 18.865 14.3535 18.9788 14.3095 19.085C14.2655 19.1913 14.201 19.2878 14.1198 19.3691C14.0385 19.4504 13.9419 19.5148 13.8357 19.5588C13.7295 19.6028 13.6157 19.6255 13.5007 19.6255C13.3857 19.6255 13.2719 19.6028 13.1657 19.5588C13.0594 19.5148 12.9629 19.4504 12.8816 19.3691L4.13163 10.6191C4.05027 10.5378 3.98573 10.4413 3.9417 10.3351C3.89767 10.2288 3.875 10.115 3.875 10C3.875 9.88501 3.89767 9.77115 3.9417 9.66493C3.98573 9.5587 4.05027 9.4622 4.13163 9.38094L12.8816 0.630936C13.0458 0.46675 13.2685 0.374512 13.5007 0.374512C13.7329 0.374512 13.9556 0.46675 14.1198 0.630936C14.2839 0.795121 14.3762 1.0178 14.3762 1.25C14.3762 1.48219 14.2839 1.70488 14.1198 1.86906L5.98772 10L14.1198 18.1309Z" fill="#1B1B1B"/>
</svg>
