<svg width="88" height="102" viewBox="0 0 88 102" fill="none" xmlns="http://www.w3.org/2000/svg">
<path d="M2.75 6.99016V100.7C1.84 100.77 1.13 100.83 0.43 100.88C0.27 100.54 0.0899997 100.33 0.0699997 100.11C0.0199997 99.3602 0 98.6102 0 97.8602C0 67.7002 0 37.5502 0 7.39016C0 5.17683 1.1 4.07016 3.3 4.07016C4.63 4.07016 5.96 4.05016 7.29 4.02016C7.44 4.02016 7.6 3.92016 7.9 3.81016C7.97 3.33016 8.15 2.77016 8.13 2.23016C8.04 0.440161 8.92 -0.00983807 10.58 0.000161931C17.89 0.0601619 25.21 -0.0198388 32.52 0.0501612C36.74 0.0901612 36.33 -0.649836 36.91 4.08016C38.75 4.08016 40.64 4.15016 42.52 4.06016C44.13 3.98016 44.74 4.56016 44.69 6.21016C44.59 9.37016 44.66 12.5302 44.66 16.0102C46.47 16.3202 48.21 16.6202 50.31 16.9802C50.31 14.6502 50.37 12.5902 50.29 10.5402C50.23 9.04016 50.83 8.46016 52.33 8.47016C60.39 8.51016 68.46 8.52016 76.52 8.47016C78.2 8.47016 78.64 9.22016 78.61 10.7702C78.54 14.2602 78.59 17.7502 78.59 21.4402C80.79 21.8402 82.93 22.0502 84.94 22.6902C85.76 22.9502 86.7 24.0802 86.86 24.9402C87.16 26.6402 86.96 28.4202 86.96 30.1702C86.96 52.8302 86.96 75.4902 86.96 98.1502C86.96 99.8602 87.03 101.52 84.25 100.59C84.19 99.4402 84.08 98.2202 84.08 96.9902C84.07 74.3302 84.08 51.6702 84.08 29.0102C84.08 25.3802 84.09 25.3002 80.52 24.7102C68.69 22.7602 56.85 20.8802 44.74 18.9302V101.062C42 101.062 42 101.04 42 98.2802C42 74.1202 42 49.9602 42 25.8002C42 20.4702 42 15.1402 42 9.80016C42 8.90016 42 8.01016 42 6.97016H2.76L2.75 6.99016ZM53.22 17.4602C60.85 18.6802 68.18 19.8502 75.69 21.0502V11.4802H53.22V17.4602ZM33.92 3.68016C33.9 3.38016 33.88 3.08016 33.86 2.78016C33.25 2.68016 32.64 2.48016 32.03 2.48016C25.72 2.46016 19.42 2.44016 13.11 2.51016C12.47 2.51016 11.83 3.09016 11.2 3.40016C11.83 3.62016 12.46 4.04016 13.1 4.04016C19.41 4.09016 25.71 4.08016 32.02 4.05016C32.65 4.05016 33.29 3.81016 33.92 3.68016Z" fill="white"/>
<path d="M18.71 84.5801C18.65 90.0601 19.56 89.7701 13.47 89.7701C7.80999 89.7701 8.15999 90.2601 8.12999 84.3201C8.10999 78.5001 8.16999 79.1301 13.24 79.1501C19.42 79.1701 18.66 78.5001 18.7 84.5901L18.71 84.5801ZM11.1 81.9601C11.2 83.4801 10.76 85.4701 11.55 86.3101C12.3 87.1201 14.33 86.7301 15.76 86.8601V81.9601H11.1Z" fill="white"/>
<path d="M31.51 79.1401C37.17 79.1301 36.66 78.7201 36.66 84.4101C36.66 90.0201 37.3 89.7601 31.31 89.7701C25.48 89.7701 26.01 89.9801 25.98 84.3301C25.95 78.4101 25.9 79.1501 31.51 79.1301V79.1401ZM28.66 82.0601C28.8 83.6701 28.42 85.8201 29.18 86.3601C30.28 87.1401 32.21 86.7501 33.78 86.8601V82.0601H28.66Z" fill="white"/>
<path d="M18.71 68.9002C18.69 74.3502 19.26 73.9002 13.79 73.8702C7.93001 73.8402 8.13001 74.8302 8.15001 68.2702C8.15667 64.8968 9.83334 63.2102 13.18 63.2102C19.64 63.2002 18.65 62.9102 18.72 68.9002H18.71ZM15.83 65.9402C14.26 66.0702 12.13 65.6802 11.58 66.4402C10.8 67.5102 11.18 69.4302 11.08 70.9102H15.84V65.9402H15.83Z" fill="white"/>
<path d="M18.71 20.9903C18.66 26.8603 19.44 26.3503 13.39 26.3503C8.14001 26.3503 8.13 27.0803 8.13 21.0503C8.13 15.1103 8.03001 15.6503 13.57 15.6403C19.53 15.6303 18.65 15.4703 18.7 20.9803L18.71 20.9903ZM15.88 18.6203H11.3V23.4203H15.88V18.6203Z" fill="white"/>
<path d="M13.38 57.9101C7.95999 57.8001 8.13999 58.9601 8.13999 52.7301C8.13999 46.6301 7.89999 47.6601 13.15 47.6101C18.7 47.5601 18.72 47.6001 18.7 53.1201C18.68 58.5901 19.29 57.8501 13.38 57.9001V57.9101ZM11.23 55.0101H15.79V50.5401H11.23V55.0101Z" fill="white"/>
<path d="M78.58 84.5302C78.51 90.1002 79.43 89.7702 73.39 89.7602C67.48 89.7602 68.28 90.1702 68.29 84.7402C68.29 78.3202 67.49 79.1902 73.81 79.1502C79.32 79.1102 78.53 78.8002 78.59 84.5402L78.58 84.5302ZM71.26 82.0102C70.57 87.0802 71.22 87.7002 75.67 86.4102V82.0102H71.26Z" fill="white"/>
<path d="M50.31 84.2701C50.33 78.5501 49.72 79.1401 55.55 79.1401C61.28 79.1401 60.7 78.5501 60.69 84.3701C60.67 90.2701 61.52 89.7401 55.21 89.7601C49.43 89.7801 50.39 90.0201 50.32 84.2701H50.31ZM53.28 81.9901V86.6201H57.74V81.9901H53.28Z" fill="white"/>
<path d="M31.29 26.3602C25.77 26.3802 25.95 26.8502 25.98 20.9102C26.01 15.6602 25.98 15.6702 31.27 15.6602C37.05 15.6402 36.67 15.3002 36.66 21.0202C36.66 26.8602 37.06 26.3702 31.29 26.3702V26.3602ZM28.96 23.4502H33.7V18.5702C28.42 18.0602 28.29 18.2002 28.96 23.4502Z" fill="white"/>
<path d="M31.15 73.8702C25.72 73.8702 25.96 74.3802 25.98 68.5802C26 63.2002 25.98 63.2002 31.4 63.2002C34.9067 63.2002 36.66 64.9535 36.66 68.4602C36.66 74.5602 37.14 73.8202 31.15 73.8602V73.8702ZM33.84 66.3802C28.83 65.2702 28.06 66.0402 29.05 70.9102H33.84V66.3802Z" fill="white"/>
<path d="M13.49 42.0002C7.7 41.9102 8.18 42.9602 8.14 36.7002C8.11 30.7002 8.2 31.6402 13.31 31.6402C19.47 31.6402 18.69 30.9202 18.69 37.1302C18.69 42.6902 19.46 41.9402 13.49 42.0002ZM15.69 34.5102H11.25V39.1502C15.87 40.2302 16.47 39.6202 15.69 34.5102Z" fill="white"/>
<path d="M78.58 68.6302C78.53 74.5802 79.25 73.8702 73.24 73.8702C67.65 73.8702 68.26 74.5602 68.28 68.8002C68.3 62.7202 67.37 63.2602 73.81 63.2102C79.63 63.1702 78.48 63.4302 78.58 68.6302ZM71.16 70.9702H75.64V66.2302H71.16V70.9702Z" fill="white"/>
<path d="M60.69 68.5801C60.66 74.5801 61.29 73.8501 55.37 73.8701C49.82 73.8801 50.29 74.4601 50.32 68.8101C50.35 62.8101 49.45 63.2301 55.89 63.2001C61.59 63.1801 60.63 63.2301 60.7 68.5801H60.69ZM57.84 66.1801H53.28V70.9101H57.84V66.1801Z" fill="white"/>
<path d="M31.29 47.6002C37.36 47.6702 36.63 46.8102 36.65 53.0802C36.67 58.4702 37.09 57.9302 31.88 57.9002C25.22 57.8602 26.04 58.8802 25.98 51.9302C25.98 51.4302 26.03 50.9302 25.98 50.4402C25.73 48.2902 26.62 47.3302 28.81 47.5902C29.63 47.6902 30.46 47.6102 31.29 47.6102V47.6002ZM28.81 54.9402H33.78V50.5502H28.81V54.9402Z" fill="white"/>
<path d="M50.31 52.5201C50.36 46.8601 49.69 47.6401 55.16 47.6101C60.69 47.5801 60.71 47.6101 60.69 53.0901C60.67 58.5401 61.25 57.8601 55.96 57.9101C55.88 57.9101 55.79 57.9101 55.71 57.9101C49.5 57.8201 50.39 58.7801 50.3 52.5301L50.31 52.5201ZM53.3 50.4501V55.0001H57.74V50.4501H53.3Z" fill="white"/>
<path d="M31.35 31.6203C37.21 31.6603 36.64 30.9203 36.65 36.9703C36.65 42.6203 37.2 42.0103 31.57 41.9903C25.32 41.9703 26.03 42.8103 25.98 36.4503C25.93 30.7603 25.98 31.6803 31.35 31.6203ZM33.81 34.5503H28.98C28.24 39.7503 29.01 40.4603 33.81 39.0703V34.5503Z" fill="white"/>
<path d="M73.22 47.6002C79.44 47.6902 78.54 46.7402 78.57 53.0702C78.59 58.4502 79.2 57.8802 73.81 57.9002C68.27 57.9202 68.27 57.9002 68.27 52.4102C68.27 49.2036 69.92 47.6002 73.22 47.6002ZM71.25 50.4102V54.9602H75.63V50.4102H71.25Z" fill="white"/>
<path d="M73.3299 42.0003C68.2699 42.0003 68.2399 42.0003 68.2799 36.8603C68.3199 30.7903 67.5199 31.6703 73.5899 31.6403C79.1999 31.6103 78.5999 31.0303 78.5799 36.7203C78.5499 42.7503 79.4399 41.9303 73.3399 42.0003H73.3299ZM71.1599 39.3003H75.6399V34.5203H71.1599V39.3003Z" fill="white"/>
<path d="M55.0653 41.3899C50.0053 41.3899 49.9753 41.3899 50.0153 36.2499C50.0553 30.1799 49.2553 31.0599 55.3253 31.0299C60.9353 30.9999 60.3353 30.4199 60.3153 36.1099C60.2853 42.1399 61.1753 41.3199 55.0753 41.3899H55.0653ZM52.8953 38.6899H57.3753V33.9099H52.8953V38.6899Z" fill="white"/>
</svg>
