<svg width="136" height="120" viewBox="0 0 136 120" fill="none" xmlns="http://www.w3.org/2000/svg">
<path d="M68.694 68.7789C66.3621 68.1877 65.6287 68.442 64.6945 70.3945C64.0303 71.7831 63.1446 72.7525 61.6361 73.2543C61.0826 73.44 60.529 74.0587 60.2868 74.6155C59.5741 76.2586 58.8061 77.7435 57.007 78.5204C56.5226 78.7266 56.1974 79.4897 55.976 80.0603C55.6024 81.0228 54.9934 81.5384 53.9555 81.6621C52.7377 81.8065 51.5337 82.0609 50.3159 82.2259C49.188 82.3771 48.5099 81.8065 48.5514 80.6791C48.6137 79.2354 48.7313 77.7848 48.9389 76.3549C49.0081 75.8736 49.3748 75.3855 49.7208 75.0074C53.2359 71.1782 56.7856 67.3764 60.2937 63.5335C60.5982 63.2035 60.8819 62.5985 60.792 62.2067C59.4911 56.2944 62.9162 51.4752 68.95 50.7946C69.1368 50.774 69.3236 50.7465 69.4759 50.719C69.725 49.2959 69.8426 47.8797 70.2509 46.5598C70.6591 45.2329 71.3718 43.9955 72.0015 42.6068C69.2821 41.7543 68.2304 39.4032 67.2201 36.9626C65.6425 33.154 63.9887 29.3798 62.3488 25.5987C61.3455 23.2957 61.5323 21.0545 63.0546 19.109C64.2171 17.6171 65.601 16.2491 67.0817 15.0666C71.9807 11.1411 76.9627 7.3188 81.924 3.46895C82.6505 2.90522 83.4186 2.40336 84.1728 1.87401C86.906 -0.0509167 89.9644 -0.422155 93.0851 0.437187C99.3264 2.15587 105.519 4.03267 111.726 5.8751C114.729 6.76194 117.718 7.71753 120.86 8.68686C121.012 7.79315 121.123 7.01631 121.268 6.24634C121.496 5.04326 122.085 4.61015 123.302 4.80264C126.942 5.36637 130.575 5.94385 134.214 6.5282C135.342 6.70694 135.709 7.22255 135.529 8.35C134.47 15.211 133.391 22.0651 132.332 28.9192C131.813 32.3084 131.322 35.7114 130.817 39.1076C130.506 41.2043 130.111 41.4931 128.021 41.17C124.645 40.6406 121.268 40.1388 117.898 39.5957C116.521 39.3688 116.175 38.8119 116.404 37.437C116.597 36.282 116.784 35.1202 116.999 33.7796C112.84 33.8759 108.744 33.0578 105.222 36.172C101.437 39.5132 97.4512 42.6412 93.4518 45.7279C91.6251 47.1372 89.5285 48.2028 87.5772 49.4678C87.3004 49.6465 87.0859 50.0315 87.0029 50.3684C86.4908 52.3345 85.5013 54.0188 84.1728 55.545C83.9375 55.8132 83.8268 56.3769 83.9306 56.7275C85.3699 61.8835 82.9619 66.4965 77.8761 68.1602C76.8105 68.5108 76.4161 69.3083 76.2569 70.2845C76.1877 70.7313 76.2016 71.2057 76.2569 71.6525C76.4092 72.9106 76.0701 73.9968 75.1567 74.8768C74.4233 75.5849 74.2365 76.4098 74.451 77.3792C74.8108 78.981 74.534 80.4178 73.586 81.8271C73.2193 82.3702 73.2539 83.2777 73.3231 83.9996C73.413 84.9001 73.1778 85.5532 72.472 86.0964C71.4964 86.8388 70.5691 87.6432 69.5797 88.3719C68.4656 89.1968 67.6007 88.9562 66.9779 87.7188C66.9295 87.6157 66.8949 87.5057 66.8326 87.4094C65.2412 84.8933 65.1028 82.329 66.0438 79.4828C67.0748 76.3411 67.7114 73.0687 68.5141 69.8514C68.5971 69.5282 68.6248 69.1845 68.6871 68.7926L68.694 68.7789ZM117.331 30.8373C117.414 30.686 117.469 30.6241 117.476 30.5554C118.417 24.5262 119.337 18.4971 120.299 12.468C120.431 11.6499 119.995 11.5055 119.407 11.3268C115.739 10.1993 112.093 9.00998 108.419 7.9169C103.132 6.34258 97.8318 4.79577 92.5246 3.29708C89.7015 2.49961 87.1551 3.17333 84.8509 4.96764C79.5714 9.09935 74.2572 13.1829 68.9915 17.3215C67.8844 18.1946 66.8396 19.164 65.8847 20.202C64.9229 21.2539 64.2863 22.5257 64.9021 23.9763C66.8811 28.6511 68.8808 33.319 70.9497 37.9526C71.697 39.63 73.1501 40.2694 74.5755 39.8088C76.2016 39.2794 77.0388 37.8357 76.6859 35.9864C76.5268 35.1271 76.2154 34.2952 75.9594 33.4565C75.136 30.7616 74.0842 28.1217 74.1188 25.2344C74.1396 23.5294 74.8938 22.3263 76.4507 21.6182C79.7997 20.092 83.1418 18.5521 86.5047 17.0465C88.6359 16.0978 90.5941 16.5241 92.1233 18.2702C93.5556 19.8996 94.5658 21.7764 95.1263 23.88C95.7214 26.1143 95.2509 28.108 93.7632 29.8748C90.6148 33.6146 87.4595 37.3614 84.3043 41.1012C83.0311 42.6137 83.0519 44.5111 84.3735 45.9479C85.3837 47.0479 86.7192 47.0616 88.4075 45.831C90.6287 44.2017 92.7944 42.4899 94.9602 40.785C98.33 38.1313 101.665 35.4365 105.028 32.7759C106.419 31.676 108.024 31.0916 109.809 31.0091C111.186 30.9472 112.57 30.8716 113.947 30.8373C115.089 30.8098 116.231 30.8373 117.324 30.8373H117.331ZM124.029 7.89627C123.918 8.39813 123.821 8.72812 123.773 9.06498C122.5 17.4247 121.233 25.7912 119.953 34.1509C119.531 36.8939 119.517 36.9076 122.258 37.3614C124.133 37.6707 126.022 37.9389 128.008 38.2413C129.509 28.5205 130.983 18.9371 132.484 9.21622C129.627 8.76936 126.88 8.34313 124.029 7.90315V7.89627ZM79.4883 38.5369C80.0004 38.6194 80.4017 38.6126 80.7408 38.7501C81.8755 39.2038 82.4914 38.6676 83.1902 37.8082C85.8196 34.584 88.5182 31.4216 91.2376 28.2799C92.2547 27.1111 92.7529 25.8256 92.1509 24.3956C91.5697 23.0069 90.8155 21.6664 90.0059 20.3877C89.4247 19.4733 88.5321 19.3083 87.4872 19.7964C84.4773 21.2126 81.4604 22.6288 78.402 23.9419C77.2187 24.4506 76.8105 25.1931 77.115 26.3481C77.7377 28.6992 78.3397 31.0641 79.0801 33.3809C79.606 35.0446 79.9589 36.6876 79.4883 38.5301V38.5369ZM75.8487 53.6201C72.984 53.4826 70.6868 54.9332 69.7042 57.3943C68.7424 59.8211 69.4413 62.5023 71.6001 64.3035C72.4166 64.984 72.6104 65.699 72.3544 66.7165C71.0466 71.8519 69.8218 77.008 68.5002 82.1434C68.2234 83.2227 68.4933 84.0477 69.0953 84.8864C70.0502 84.5083 70.4169 83.9377 70.2993 82.9271C70.2301 82.2946 70.3477 81.504 70.6937 81.0022C71.5586 79.751 71.8077 78.4654 71.4894 77.0079C71.2265 75.798 71.3649 74.6431 72.3682 73.7562C73.3023 72.9381 73.3577 71.8863 73.33 70.7451C73.2677 67.9952 74.5894 66.2077 77.2049 65.3622C80.4017 64.3309 82.2561 60.8936 81.0729 57.9374C79.8827 58.4049 78.6718 58.838 77.5024 59.3536C76.4299 59.828 75.4128 59.8142 74.4371 59.1749C73.4961 58.5562 73.0947 57.6625 73.1778 56.5281C73.3023 54.8507 74.4094 54.1013 75.8487 53.627V53.6201ZM80.3463 41.7474C76.8382 40.7575 71.8146 45.9548 72.8456 50.9527C76.3469 50.0659 79.4053 50.9527 82.2492 53.6545C82.9135 52.3208 83.5362 51.1727 84.0413 49.9765C84.1313 49.7634 83.8199 49.2134 83.5501 49.0484C81.8825 48.0172 80.8722 46.546 80.5332 44.6623C80.3671 43.7411 80.4086 42.7787 80.3463 41.7543V41.7474ZM51.7621 78.9123C52.8553 79.1048 53.4573 78.706 53.8171 77.7092C53.997 77.2142 54.3914 76.6298 54.8412 76.4236C56.4673 75.6811 57.3876 74.4231 57.8719 72.7869C58.1833 71.7419 58.8822 71.1232 59.9132 70.8069C60.9788 70.4838 61.733 69.8582 62.2658 68.8064C63.5874 66.1802 65.3934 65.2865 68.2373 65.6234C68.2857 65.6234 68.3411 65.5409 68.4725 65.4309C67.1302 63.8016 66.3898 61.9179 66.3344 59.8005C66.2791 57.69 66.9849 55.7994 68.2304 54.012C64.7776 54.5482 62.5564 58.3568 63.8227 61.6567C64.3693 63.0866 64.0441 63.9872 63.0754 65.0047C59.6295 68.6414 56.2666 72.3538 52.8207 75.9905C52.0181 76.8292 51.5821 77.6885 51.7621 78.9054V78.9123Z" fill="#E6E6E6"/>
<path d="M61.9069 93.5155C66.4341 91.8379 70.781 90.195 75.1557 88.6214C78.6984 87.3459 82.255 86.0773 86.075 85.8694C88.3698 85.7446 90.6299 85.8971 92.7028 86.9716C95.6701 88.5036 96.1415 91.7131 93.7011 94.0215C92.8207 94.8534 91.7669 95.5813 90.6645 96.0665C84.0922 98.9849 77.4782 101.806 70.892 104.683C68.4239 105.758 66.0043 106.943 63.5362 108.004C58.7248 110.083 53.7955 110.069 48.7206 109.036C43.2228 107.92 37.6627 107.089 32.1302 106.139C31.839 106.09 31.4924 106.07 31.2289 106.167C28.7886 107.096 26.3621 108.052 23.8038 109.043C24.3585 110.423 24.8853 111.726 25.3984 113.036C26.0501 114.693 25.7797 115.296 24.1227 115.955C21.0168 117.189 17.9109 118.43 14.798 119.657C13.141 120.308 12.5795 120.093 11.9347 118.485C8.0523 108.815 4.17682 99.1444 0.315208 89.4741C-0.322618 87.8797 -0.0383717 87.3112 1.59086 86.6596C4.73145 85.4049 7.87205 84.1433 11.0126 82.8886C12.6211 82.2439 13.1896 82.4865 13.8413 84.1155C14.2018 85.0029 14.5692 85.8902 14.9367 86.7775C14.9644 86.8399 15.0545 86.8676 15.214 86.9854C17.3354 85.7792 19.45 84.4691 21.6685 83.3391C24.8854 81.7101 28.0953 80.0325 31.4439 78.7015C35.4719 77.1072 39.2503 77.8836 42.9663 80.1989C46.5714 82.4449 50.44 84.2958 54.26 86.1744C57.5808 87.8034 60.6452 89.6058 61.9 93.4947L61.9069 93.5155ZM22.7154 106.312C25.2528 105.314 27.6377 104.35 30.0434 103.449C30.6327 103.227 31.3329 103.04 31.9361 103.144C37.4755 104.052 43.0495 104.808 48.5196 106.035C54.3016 107.331 59.6815 106.777 65.0129 104.233C70.2125 101.751 75.5439 99.5256 80.8129 97.1826C83.9397 95.7962 87.0802 94.4375 90.1723 92.9817C91.1568 92.5173 92.3978 91.8587 92.1898 90.5901C91.9818 89.3008 90.5883 89.2106 89.5137 88.9957C86.7613 88.4481 84.0229 88.8086 81.4299 89.6959C74.9962 91.9003 68.618 94.278 62.2259 96.6072C61.9 96.7251 61.595 97.0301 61.4008 97.3282C60.0281 99.4425 57.9899 100.24 55.6327 99.9C52.7486 99.491 49.8992 98.8324 47.0498 98.2085C43.7428 97.4876 40.4566 96.6904 37.1704 95.9001C36.1721 95.6645 35.6452 94.8673 35.9225 94.0354C36.2206 93.1204 36.907 92.8084 37.836 93.0302C37.9122 93.051 37.9816 93.0788 38.0578 93.0926C43.4932 94.3266 48.9217 95.5882 54.3709 96.7597C55.3554 96.9746 56.4508 96.9954 57.4283 96.7875C58.8565 96.4894 59.5151 95.2416 58.8495 93.9591C58.2256 92.7738 57.3312 91.6369 56.3121 90.7773C55.2722 89.9039 53.9688 89.3146 52.7139 88.7531C48.679 86.9369 44.651 85.1207 41.0182 82.5419C38.3213 80.6217 35.3332 80.3029 32.3451 81.5368C29.156 82.8539 26.0778 84.4413 23.0065 86.0219C20.6979 87.2142 18.4724 88.5798 16.1568 89.9039C18.3546 95.3872 20.5107 100.766 22.7292 106.305L22.7154 106.312ZM22.3618 113.459C18.6596 104.212 15.0268 95.1376 11.3524 85.9664C8.61387 87.0686 6.0071 88.1223 3.3934 89.176C7.1025 98.4304 10.7423 107.511 14.4028 116.662C17.1066 115.573 19.658 114.548 22.3618 113.459Z" fill="#E6E6E6"/>
</svg>
