<svg width="246" height="246" viewBox="0 0 246 246" fill="none" xmlns="http://www.w3.org/2000/svg">
<circle cx="123" cy="123" r="123" fill="white"/>
<circle cx="123" cy="123" r="122.5" stroke="#FF7560"/>
<path d="M84.6665 97.6667H110.333" stroke="#404040" stroke-width="5" stroke-linecap="round" stroke-linejoin="round"/>
<path d="M179.845 104.083H163.149C151.695 104.083 142.417 112.701 142.417 123.333C142.417 133.966 151.701 142.583 163.142 142.583H179.845C180.384 142.583 180.647 142.583 180.872 142.57C184.337 142.359 187.096 139.798 187.32 136.584C187.333 136.378 187.333 136.128 187.333 135.634V111.033C187.333 110.538 187.333 110.288 187.32 110.083C187.089 106.868 184.337 104.308 180.872 104.096C180.653 104.083 180.384 104.083 179.845 104.083Z" stroke="#404040" stroke-width="5"/>
<path d="M180.692 104.083C180.192 92.0713 178.587 84.705 173.396 79.5203C165.882 72 153.781 72 129.583 72H110.333C86.1361 72 74.0342 72 66.5203 79.5203C59.0064 87.0407 59 99.1361 59 123.333C59 147.531 59 159.632 66.5203 167.146C74.0407 174.66 86.1361 174.667 110.333 174.667H129.583C153.781 174.667 165.882 174.667 173.396 167.146C178.587 161.962 180.198 154.595 180.692 142.583" stroke="#404040" stroke-width="5"/>
<path d="M161.609 123.333H161.673" stroke="#404040" stroke-width="5" stroke-linecap="round" stroke-linejoin="round"/>
</svg>
