<svg width="107" height="117" viewBox="0 0 107 117" fill="none" xmlns="http://www.w3.org/2000/svg">
<path d="M41.1582 0C43.5849 0.306886 46.0117 0.613775 48.4385 0.925382C50.5819 1.19922 52.7254 1.47305 54.8689 1.75633C57.8622 2.15292 60.8508 2.5684 63.8488 2.96499C66.0679 3.25771 68.2916 3.51266 70.5154 3.80538C73.046 4.13588 75.5719 4.49942 78.0978 4.83463C80.3168 5.12735 82.5406 5.40119 84.7596 5.68919C86.7472 5.94886 88.768 6.07162 90.7131 6.52958C93.3571 7.14808 94.6271 8.95634 94.2494 11.7655C93.7442 15.5237 93.2579 19.2819 92.7622 23.04C92.257 26.8501 91.7518 30.6602 91.2467 34.4703C90.7556 38.2049 90.2646 41.9347 89.7736 45.6693C89.2731 49.4794 88.7632 53.2895 88.2628 57.0996C88.1211 58.1903 87.9653 59.2761 87.8804 60.3715C87.8567 60.6925 87.9701 61.1033 88.1731 61.3441C92.6678 66.5895 97.9604 70.7726 104.443 73.3221C106.275 74.0444 106.681 74.7196 106.487 76.6695C106.445 77.1133 106.383 77.5524 106.322 77.9962C105.651 82.9772 105.005 87.9629 104.306 92.9439C103.678 97.4008 101.553 101.14 98.6025 104.445C94.3108 109.251 88.9474 112.518 83.0788 115.002C81.8654 115.517 80.5954 115.974 79.3064 116.215C78.4236 116.381 77.4557 116.154 76.535 116.041C73.8722 115.71 71.2188 115.347 68.5607 114.992C66.0301 114.652 63.5042 114.298 60.9783 113.958C58.8348 113.67 56.6913 113.392 54.5479 113.109C52.2769 112.806 50.0059 112.5 47.7397 112.202C45.6246 111.924 43.5047 111.654 41.3848 111.376C39.1375 111.078 36.8948 110.772 34.6475 110.479C32.0649 110.144 29.4824 109.827 26.8998 109.487C24.3172 109.147 21.7394 108.784 19.1616 108.444C16.9945 108.156 14.8227 107.887 12.6509 107.604C10.1202 107.273 7.58962 106.947 5.06371 106.584C4.29886 106.475 3.53872 106.277 2.79276 106.064C1.02226 105.564 -0.195835 103.827 0.0260673 102.009C0.602068 97.3064 1.21584 92.6039 1.83433 87.9062C2.64167 81.7543 3.46319 75.6025 4.27525 69.4506C4.9268 64.5168 5.56889 59.583 6.22043 54.654C6.99001 48.8137 7.75959 42.9734 8.5386 37.1332C9.10988 32.8509 9.62451 28.5593 10.2902 24.2912C10.8851 20.5047 12.7359 17.3036 15.6961 14.9052C20.0114 11.4161 24.4494 8.07818 28.8828 4.7402C30.4219 3.57876 32.0366 2.47397 33.7457 1.59109C36.0356 0.406035 38.552 0.00472132 41.1582 0ZM73.1971 112.707L73.3245 112.485C73.1546 112.278 72.9988 112.051 72.8099 111.857C71.1811 110.191 69.4578 108.609 67.9375 106.853C64.7837 103.208 62.3475 99.1524 61.1624 94.4122C60.6289 92.2876 60.2843 90.1252 60.5345 87.9629C61.2144 82.1415 62.0359 76.3343 62.8007 70.5223C62.9801 69.1673 63.8205 68.4119 65.1897 68.2561C66.5117 68.105 67.8431 67.935 69.1414 67.6423C74.5426 66.4289 79.5095 64.2099 84.1033 61.1222C84.7265 60.702 85.0287 60.2346 85.1278 59.4886C86.667 47.6664 88.2297 35.849 89.7878 24.0268C90.3402 19.8437 90.9067 15.6653 91.4261 11.4775C91.6149 9.93838 91.0956 9.38598 89.5611 9.20185C87.4035 8.93746 85.2506 8.64001 83.0977 8.35674C77.3613 7.5966 71.6249 6.83647 65.8885 6.07634C59.6846 5.25483 53.4808 4.4286 47.277 3.62597C45.4876 3.39463 43.6888 3.11607 41.8947 3.07358C39.6285 3.01692 37.2584 4.99044 36.9515 7.0631C36.5407 9.85812 36.1866 12.6579 35.8278 15.4623C35.2424 20.0184 31.4842 23.0448 27.3483 22.7048C24.6147 22.4782 21.8858 22.0816 19.171 21.6661C15.7008 21.1373 13.0994 23.7105 12.8161 26.1183C12.2307 31.0757 11.4989 36.0189 10.8473 40.9716C10.0353 47.114 9.25152 53.2612 8.44418 59.4084C7.56129 66.1504 6.66896 72.8877 5.77191 79.6298C4.7946 86.9667 3.81256 94.2989 2.83525 101.631C2.68417 102.75 3.19879 103.463 4.32247 103.619C7.79736 104.1 11.2722 104.563 14.7519 105.021C20.5119 105.781 26.2766 106.532 32.0366 107.287C38.2404 108.104 44.4395 108.926 50.6433 109.747C56.8471 110.569 63.0462 111.39 69.25 112.212C70.5626 112.386 71.8798 112.542 73.1923 112.707H73.1971ZM63.1218 89.639C63.1784 89.6484 63.2351 89.6578 63.2965 89.6673C63.3106 89.927 63.3153 90.1866 63.3389 90.4463C63.6081 93.9117 64.7601 97.0845 66.5211 100.049C69.6608 105.347 73.9902 109.525 78.9476 113.094C79.2026 113.279 79.7125 113.312 80.0146 113.189C81.804 112.448 83.6028 111.716 85.3261 110.842C90.2363 108.354 94.6602 105.229 97.9934 100.758C99.7214 98.4442 101.048 95.8994 101.482 93.0336C102.276 87.7599 102.866 82.4578 103.626 77.1794C103.753 76.2918 103.484 75.9802 102.753 75.678C96.4873 73.0955 91.2231 69.1154 86.752 64.0636C86.209 63.4498 85.8455 63.3743 85.1467 63.8322C79.4198 67.5904 73.2159 70.1305 66.3795 70.9472C65.6524 71.0322 65.4777 71.3816 65.4069 72.0001C65.2511 73.4023 65.0622 74.8046 64.8781 76.2021C64.2974 80.6826 63.7119 85.1584 63.1265 89.639H63.1218ZM15.8661 18.7672C15.9133 18.8333 15.9605 18.8947 16.0077 18.9608C16.2296 18.9608 16.4515 18.9655 16.6734 18.9608C17.4288 18.9325 18.1937 18.805 18.9397 18.89C21.56 19.1827 24.1803 19.5132 26.7912 19.8909C29.0858 20.2214 31.2009 19.2347 32.3529 17.2092C33.1886 15.7456 33.1225 14.0837 33.4058 12.4973C33.8826 9.85811 33.7646 7.11503 34.8505 4.5844C34.8694 4.53719 34.8033 4.44748 34.7136 4.22086C34.0007 4.64578 33.2736 4.99516 32.6409 5.46729C29.5862 7.76185 26.5552 10.08 23.5288 12.4123C21.4136 14.0365 19.3079 15.6795 17.2306 17.3461C16.7254 17.7522 16.3241 18.2904 15.8708 18.7672H15.8661Z" fill="#E6E6E6"/>
<path d="M71.6672 61.4148C68.4756 60.9946 64.9441 60.5319 61.4125 60.0645C54.7932 59.1911 48.1739 58.3223 41.5546 57.4489C35.0912 56.5943 28.6277 55.7445 22.1642 54.8852C21.8526 54.8427 21.541 54.7908 21.2388 54.7058C20.5212 54.4981 20.0963 53.8607 20.2332 53.1478C20.3654 52.4537 20.8045 51.9863 21.5363 52.0336C22.8393 52.1233 24.1377 52.2743 25.4361 52.4443C29.2462 52.9353 33.0563 53.4452 36.8664 53.9504C40.6482 54.4509 44.4346 54.956 48.2164 55.4565C51.9746 55.9522 55.7328 56.4433 59.4909 56.939C63.2727 57.4395 67.0592 57.9399 70.841 58.4451C71.332 58.5112 71.8277 58.5773 72.3188 58.6481C73.5605 58.8323 74.0373 59.3374 73.9193 60.3289C73.8154 61.2024 73.2913 61.5092 71.6719 61.4148H71.6672Z" fill="#E6E6E6"/>
<path d="M29.1281 36.2266C29.6096 36.9395 29.9921 37.5155 30.3934 38.0821C30.9788 38.9177 31.602 39.7251 32.1686 40.5796C32.721 41.4106 32.6077 42.2227 31.9467 42.6712C31.2952 43.1103 30.3745 42.9025 29.8268 42.1471C28.4151 40.1972 27.0224 38.2331 25.6154 36.2785C25.4738 36.0802 25.2991 35.9008 25.1433 35.7167C25.063 35.7308 24.9875 35.7403 24.9072 35.7545C24.7797 36.5854 24.6475 37.4116 24.5295 38.2426C24.4162 39.0169 24.3312 39.8006 24.2085 40.5702C24.0621 41.4956 23.4153 42.0008 22.5702 41.8827C21.8053 41.7741 21.3662 41.1981 21.4748 40.2586C21.7156 38.1529 22.0036 36.0566 22.2822 33.9556C22.5749 31.7508 22.8723 29.5506 23.1792 27.3458C23.3067 26.4393 23.6844 25.986 24.5531 26.0852C26.9374 26.359 29.3405 26.6045 31.6729 27.1428C33.5142 27.5677 34.7512 29.8292 34.567 31.7933C34.364 33.9745 32.8437 35.7167 30.8136 36.0661C30.3367 36.1463 29.8457 36.1652 29.1281 36.2313V36.2266ZM29.638 33.3371C30.79 33.3371 31.6776 32.577 31.7767 31.5666C31.8664 30.6507 31.1205 29.7725 30.0346 29.6026C28.8212 29.4137 27.5984 29.291 26.385 29.1116C25.9459 29.0455 25.7287 29.1965 25.6721 29.6073C25.5493 30.4619 25.4077 31.3164 25.3557 32.171C25.3416 32.3834 25.6296 32.7753 25.8279 32.8131C27.1168 33.035 28.4151 33.1813 29.6427 33.3419L29.638 33.3371Z" fill="#E6E6E6"/>
<path d="M55.148 37.9169C55.011 38.8565 54.8599 39.796 54.7325 40.7355C54.5578 42.0292 54.4067 43.3275 54.2273 44.6259C54.1187 45.4191 53.5191 45.9007 52.7637 45.8487C51.9658 45.7921 51.4228 45.2822 51.5031 44.4465C51.6872 42.5249 51.9563 40.6081 52.2066 38.6912C52.4898 36.4863 52.7967 34.2862 53.0706 32.0861C53.1886 31.1607 53.5474 30.6414 54.2367 30.5233C55.0394 30.3864 55.587 30.7358 55.9742 31.6517C56.9751 34.0407 57.9713 36.4297 58.9769 38.8187C59.0525 39.0028 59.1563 39.1775 59.2461 39.3569C59.3216 39.3616 59.4019 39.3711 59.4774 39.3758C59.5954 38.7195 59.7324 38.0633 59.8268 37.4023C60.0581 35.7215 60.2611 34.036 60.4878 32.3505C60.6105 31.444 61.2054 30.9199 61.9986 30.9813C62.8531 31.0474 63.3442 31.5715 63.2356 32.544C62.9428 35.1974 62.5746 37.8414 62.2346 40.4853C62.0458 41.9631 61.8522 43.4408 61.6539 44.9233C61.6209 45.1547 61.5737 45.386 61.5453 45.6221C61.4509 46.3445 61.0402 46.7788 60.3225 46.8308C59.6285 46.878 59.1327 46.538 58.8589 45.8818C57.8533 43.4692 56.8429 41.0519 55.8231 38.644C55.7098 38.3796 55.5398 38.1388 55.3935 37.8839C55.3132 37.8933 55.2329 37.9075 55.1527 37.9169H55.148Z" fill="#E6E6E6"/>
<path d="M37.3151 41.8026C37.6645 39.1445 38.08 35.9765 38.4955 32.8132C38.6418 31.6989 38.774 30.58 38.9393 29.4658C39.0903 28.4648 39.5389 28.0305 40.5303 28.1391C43.0232 28.4176 45.5161 28.7198 47.99 29.1211C49.2506 29.3241 49.6708 30.665 48.7738 31.4629C48.4716 31.732 47.9098 31.8642 47.4848 31.8264C45.9504 31.6989 44.4207 31.4912 42.891 31.274C41.621 31.0899 41.6115 31.0663 41.4038 32.341C41.3046 32.9595 41.248 33.5875 41.1724 34.206C41.1205 34.6498 41.281 34.8858 41.7626 34.933C42.57 35.0086 43.3679 35.1408 44.1752 35.2399C45.1431 35.358 45.686 35.9765 45.5916 36.8641C45.5019 37.6761 44.8315 38.1199 43.873 37.9972C43.094 37.898 42.315 37.813 41.5407 37.6856C40.993 37.5959 40.6861 37.7658 40.6153 38.3277C40.5115 39.1586 40.3981 39.9849 40.2848 40.8158C40.214 41.321 40.5351 41.4485 40.9364 41.5004C42.4425 41.7034 43.9439 41.9064 45.45 42.1047C45.7096 42.1378 45.9693 42.1661 46.229 42.2133C47.1402 42.3927 47.6029 42.9829 47.4754 43.7902C47.3526 44.5598 46.6492 45.1028 45.8088 44.9942C43.4245 44.6967 41.0402 44.3851 38.6607 44.0452C37.6503 43.9035 37.2537 43.3512 37.3246 41.7931L37.3151 41.8026Z" fill="#E6E6E6"/>
<path d="M19.8931 64.5877C22.4095 64.9229 24.638 65.2157 26.8665 65.5084C31.0401 66.0608 35.2185 66.6085 39.3921 67.1561C43.1503 67.6519 46.9085 68.1523 50.6714 68.6528C51.1624 68.7189 51.6628 68.7614 52.135 68.903C52.9565 69.1485 53.287 69.7292 53.1406 70.5224C53.0084 71.2306 52.456 71.6839 51.6439 71.5989C49.8215 71.4053 48.0038 71.1504 46.1861 70.9143C38.7595 69.937 31.3328 68.9597 23.9109 67.9776C22.5606 67.7982 21.2056 67.6519 19.8695 67.4016C18.6136 67.1703 18.1131 66.1222 18.8261 65.2346C19.1141 64.8757 19.657 64.7246 19.8931 64.583V64.5877Z" fill="#E6E6E6"/>
<path d="M76.0584 35.6411C75.6949 35.5939 75.3313 35.5514 74.9725 35.4948C73.8866 35.3248 73.7402 35.4428 73.6033 36.4957C73.1737 39.8667 72.744 43.2377 72.3002 46.6088C72.1067 48.0724 71.186 48.6625 70.1426 48.0204C69.5571 47.6616 69.4013 47.1187 69.4863 46.4671C69.9585 42.8931 70.407 39.3143 70.9122 35.745C71.0019 35.1265 70.7752 34.9377 70.2512 34.8716C69.7082 34.8007 69.1606 34.7441 68.6223 34.6449C67.6781 34.475 67.2201 33.9131 67.3334 33.1011C67.4609 32.2182 68.0652 31.713 68.9859 31.8263C71.474 32.1379 73.9621 32.4684 76.4408 32.8367C77.5645 33.0066 77.98 33.5685 77.8383 34.5175C77.7203 35.3295 77.1632 35.6695 76.0584 35.6364V35.6411Z" fill="#E6E6E6"/>
<path d="M32.5327 81.9998C30.0965 81.6787 27.3818 81.3246 24.6623 80.9658C22.5141 80.6825 20.3659 80.3945 18.2177 80.0923C17.6039 80.0074 17.0515 79.7193 16.9901 79.0678C16.9477 78.624 17.0374 78.0008 17.3254 77.7317C17.6511 77.4248 18.2838 77.2595 18.7465 77.3162C23.4111 77.8828 28.0711 78.5107 32.7263 79.1245C32.8821 79.1433 33.0332 79.1858 33.1843 79.2236C34.2418 79.4691 34.6857 80.0026 34.5723 80.8761C34.4685 81.6929 33.9066 82.0564 32.528 81.9998H32.5327Z" fill="#E6E6E6"/>
<path d="M78.1585 96.4661C77.7194 96.1451 77.2945 95.9562 77.0395 95.6352C75.0377 93.0762 73.0595 90.4984 71.1001 87.9111C70.4958 87.1132 70.5902 86.3531 71.2653 85.8196C71.8933 85.3238 72.8139 85.4891 73.4041 86.2492C74.9291 88.2133 76.4541 90.1821 77.9413 92.1792C78.3615 92.741 78.6353 92.8307 79.2397 92.3633C83.8146 88.8129 88.4179 85.3049 93.0117 81.7876C93.8757 81.1266 94.8389 81.1407 95.3157 81.7876C95.8209 82.4769 95.684 83.2889 94.8955 83.9074C93.2289 85.22 91.5387 86.5042 89.8579 87.7931C86.5341 90.3473 83.2197 92.9063 79.8817 95.4416C79.3766 95.8288 78.7864 96.1026 78.1632 96.4661H78.1585Z" fill="#E6E6E6"/>
</svg>
