<svg width="82" height="82" viewBox="0 0 82 82" fill="none" xmlns="http://www.w3.org/2000/svg">
<path d="M66.1433 18.3274H57.4306L53.1466 11.9029C52.9171 11.5589 52.6063 11.2768 52.2417 11.0817C51.8771 10.8865 51.47 10.7842 51.0565 10.784H30.9407C30.5272 10.7842 30.1201 10.8865 29.7555 11.0817C29.3909 11.2768 29.0801 11.5589 28.8506 11.9029L24.5634 18.3274H15.8539C13.8533 18.3274 11.9346 19.1221 10.52 20.5368C9.1053 21.9515 8.31055 23.8702 8.31055 25.8708V61.0733C8.31055 63.0739 9.1053 64.9926 10.52 66.4073C11.9346 67.822 13.8533 68.6167 15.8539 68.6167H66.1433C68.1439 68.6167 70.0626 67.822 71.4772 66.4073C72.8919 64.9926 73.6867 63.0739 73.6867 61.0733V25.8708C73.6867 23.8702 72.8919 21.9515 71.4772 20.5368C70.0626 19.1221 68.1439 18.3274 66.1433 18.3274ZM68.6577 61.0733C68.6577 61.7402 68.3928 62.3798 67.9213 62.8513C67.4497 63.3229 66.8101 63.5878 66.1433 63.5878H15.8539C15.1871 63.5878 14.5475 63.3229 14.0759 62.8513C13.6044 62.3798 13.3395 61.7402 13.3395 61.0733V25.8708C13.3395 25.2039 13.6044 24.5644 14.0759 24.0928C14.5475 23.6212 15.1871 23.3563 15.8539 23.3563H25.9118C26.3259 23.3566 26.7336 23.2546 27.0988 23.0594C27.464 22.8642 27.7753 22.5818 28.0051 22.2374L32.286 15.8129H49.7081L53.9921 22.2374C54.2219 22.5818 54.5332 22.8642 54.8984 23.0594C55.2636 23.2546 55.6713 23.3566 56.0854 23.3563H66.1433C66.8101 23.3563 67.4497 23.6212 67.9213 24.0928C68.3928 24.5644 68.6577 25.2039 68.6577 25.8708V61.0733ZM40.9986 28.3853C38.2634 28.3853 35.5896 29.1963 33.3153 30.716C31.041 32.2356 29.2685 34.3955 28.2218 36.9225C27.175 39.4495 26.9012 42.2302 27.4348 44.9128C27.9684 47.5955 29.2855 50.0597 31.2196 51.9938C33.1537 53.9279 35.6179 55.245 38.3006 55.7787C40.9833 56.3123 43.7639 56.0384 46.2909 54.9917C48.818 53.9449 50.9778 52.1724 52.4975 49.8981C54.0171 47.6239 54.8282 44.95 54.8282 42.2148C54.824 38.5483 53.3656 35.0331 50.773 32.4404C48.1803 29.8478 44.6652 28.3894 40.9986 28.3853ZM40.9986 51.0154C39.258 51.0154 37.5565 50.4993 36.1092 49.5323C34.662 48.5652 33.534 47.1908 32.8679 45.5827C32.2018 43.9746 32.0275 42.2051 32.3671 40.4979C32.7066 38.7907 33.5448 37.2226 34.7756 35.9918C36.0064 34.761 37.5745 33.9229 39.2817 33.5833C40.9888 33.2437 42.7584 33.418 44.3665 34.0841C45.9746 34.7502 47.349 35.8782 48.3161 37.3255C49.2831 38.7727 49.7992 40.4742 49.7992 42.2148C49.7992 44.5489 48.872 46.7874 47.2216 48.4378C45.5712 50.0882 43.3327 51.0154 40.9986 51.0154Z" fill="#CACACA"/>
</svg>
