<svg width="20" height="26" viewBox="0 0 20 26" fill="none" xmlns="http://www.w3.org/2000/svg">
<path d="M10 0C6.52265 0 3.7037 2.827 3.7037 6.31429C3.7037 9.80157 6.52265 12.6286 10 12.6286C13.4773 12.6286 16.2963 9.80157 16.2963 6.31429C16.2963 2.827 13.4773 0 10 0Z" fill="#A2A2A2"/>
<path d="M13.7157 15.4377C11.2541 15.0438 8.74587 15.0438 6.28434 15.4377L6.0205 15.48C2.55211 16.0351 0 19.0353 0 22.5576C0 24.4588 1.5368 26 3.43254 26H16.5675C18.4632 26 20 24.4588 20 22.5576C20 19.0353 17.4479 16.0351 13.9795 15.48L13.7157 15.4377Z" fill="#A2A2A2"/>
</svg>
