<svg width="23" height="43" viewBox="0 0 23 43" fill="none" xmlns="http://www.w3.org/2000/svg">
<path d="M1.30013 39.3268C1.11507 39.5268 0.970394 39.762 0.874365 40.0191C0.778334 40.2762 0.732828 40.5501 0.740448 40.8251C0.748066 41.1001 0.808661 41.371 0.91877 41.6221C1.02888 41.8732 1.18634 42.0997 1.38218 42.2887C1.57801 42.4777 1.80838 42.6254 2.06013 42.7235C2.31187 42.8216 2.58007 42.868 2.8494 42.8602C3.11874 42.8525 3.38393 42.7906 3.62985 42.6781C3.87576 42.5657 4.09758 42.4049 4.28264 42.2049L21.7182 23.3526C22.0783 22.9637 22.2789 22.4488 22.2789 21.9136C22.2789 21.3783 22.0783 20.8634 21.7182 20.4745L4.28264 1.62009C4.0988 1.41573 3.87703 1.25071 3.63021 1.13461C3.38339 1.01851 3.11644 0.953651 2.84487 0.943798C2.5733 0.933945 2.30251 0.979298 2.04825 1.07721C1.79398 1.17513 1.5613 1.32367 1.36372 1.51419C1.16615 1.70471 1.00761 1.93343 0.897322 2.18704C0.787033 2.44066 0.727194 2.71413 0.721277 2.99157C0.715361 3.269 0.763483 3.54488 0.862854 3.80316C0.962225 4.06144 1.11086 4.29699 1.30013 4.49611L17.4065 21.9136L1.30013 39.3268Z" fill="#FF7560" fill-opacity="0.33"/>
</svg>
